<svg width="223" height="222" fill="none" xmlns="http://www.w3.org/2000/svg"><path d="M111.652 23.743c-48.115 0-87.257 39.144-87.257 87.257 0 48.113 39.142 87.256 87.257 87.256 48.113 0 87.257-39.143 87.257-87.256s-39.144-87.257-87.257-87.257zm0 198.029C50.572 221.772.879 172.08.879 111 .879 49.919 50.572.227 111.652.227 172.733.227 222.424 49.919 222.424 111c0 61.08-49.691 110.772-110.772 110.772z" fill="#D24A43"/><path d="M128.28 111l25.723-25.723c4.592-4.59 4.592-12.036 0-16.628-4.591-4.592-12.036-4.592-16.628 0l-25.723 25.723-25.723-25.723c-4.59-4.592-12.036-4.592-16.626 0-4.594 4.592-4.594 12.038 0 16.628L95.024 111l-25.721 25.723c-4.594 4.59-4.594 12.036 0 16.628a11.716 11.716 0 008.313 3.444c3.01 0 6.019-1.148 8.313-3.444l25.723-25.723 25.723 25.723a11.721 11.721 0 008.314 3.444c3.008 0 6.018-1.148 8.314-3.444 4.592-4.592 4.592-12.038 0-16.628L128.28 111z" fill="#D24A43"/></svg>