<svg width="106" height="107" viewBox="0 0 106 107" fill="none" xmlns="http://www.w3.org/2000/svg">
<path d="M31.1199 83.728L34.8946 87.5013L92.152 30.2494L88.38 26.476L31.1199 83.728ZM34.8946 89.5934C34.6733 89.5934 34.4506 89.508 34.2813 89.3387L29.2813 84.34C29.1199 84.1787 29.028 83.9574 29.028 83.728C29.028 83.4987 29.1199 83.2773 29.2813 83.1147L87.7666 24.6373C87.9293 24.4747 88.1493 24.384 88.38 24.384C88.6106 24.384 88.8306 24.4747 88.9933 24.6373L93.9906 29.636C94.3293 29.9747 94.3293 30.524 93.9906 30.8614L35.508 89.3387C35.3386 89.508 35.116 89.5934 34.8946 89.5934" fill="#100F0D"/>
<path d="M24 76.6067L29.8947 82.5014L87.1547 25.2507L81.2574 19.3548L24 76.6067ZM29.8947 84.5947C29.664 84.5947 29.444 84.5027 29.2813 84.34L22.1613 77.2201C21.8227 76.8814 21.8227 76.3321 22.1613 75.9947L80.644 17.5161C80.9827 17.1774 81.532 17.1774 81.8707 17.5161L88.9934 24.6374C89.1547 24.8 89.248 25.0201 89.248 25.2507C89.248 25.4801 89.1547 25.7001 88.9934 25.8628L30.508 84.34C30.3454 84.5027 30.124 84.5947 29.8947 84.5947Z" fill="#100F0D"/>
<path d="M19 71.6081L22.7747 75.3814L80.032 18.1294L76.26 14.3534L19 71.6081ZM22.7747 77.4734C22.5534 77.4734 22.3307 77.3894 22.1613 77.2201L17.1613 72.2214C17 72.0588 16.908 71.8374 16.908 71.6081C16.908 71.3788 17 71.1574 17.1613 70.9961L75.6467 12.5147C75.8094 12.3521 76.0294 12.2614 76.26 12.2614C76.4907 12.2614 76.7106 12.3521 76.8733 12.5147L81.8706 17.5161C82.2093 17.8548 82.2093 18.4041 81.8706 18.7414L23.388 77.2201C23.2187 77.3894 22.996 77.4734 22.7747 77.4734Z" fill="#100F0D"/>
<path d="M77.4853 13.1281L93.3773 29.0228L103.639 18.7575C104.228 18.1681 104.225 17.2001 103.635 16.6014L89.8906 2.86142C89.3226 2.29209 88.3133 2.29076 87.7386 2.86409L77.4853 13.1281ZM93.3773 31.1147C93.1466 31.1147 92.9266 31.0241 92.7639 30.8614L75.6466 13.7401C75.3093 13.4027 75.308 12.8534 75.6466 12.5147L86.5146 1.6361C87.7519 0.406765 89.8933 0.413432 91.116 1.6361L104.864 15.3801C106.127 16.6601 106.125 18.7228 104.864 19.9828L93.9906 30.8614C93.828 31.0241 93.608 31.1147 93.3773 31.1147" fill="#100F0D"/>
<path d="M18.0187 73.0774L3.10397 103.367L33.424 88.4827L18.0187 73.0774ZM1.20267 106.132C0.977332 106.132 0.755986 106.045 0.589319 105.879C0.327986 105.616 0.261322 105.216 0.425322 104.883L16.9973 71.2254C17.1213 70.9747 17.3587 70.7987 17.6333 70.7534C17.912 70.7054 18.1907 70.7974 18.388 70.9961L35.508 88.1134C35.7053 88.3107 35.796 88.592 35.7506 88.868C35.7026 89.144 35.528 89.3814 35.276 89.504L1.58398 106.044C1.46398 106.104 1.33333 106.132 1.20267 106.132Z" fill="#100F0D"/>
<path d="M8.38665 92.6387L3.10397 103.367L13.8426 98.0947C13.2066 96.9774 12.412 95.9334 11.472 94.9814C10.5453 94.0667 9.51065 93.2787 8.38665 92.6387ZM1.20267 106.132C0.977332 106.132 0.755986 106.045 0.589319 105.879C0.327986 105.616 0.261322 105.216 0.425322 104.883L7.22669 91.0707C7.32802 90.864 7.50799 90.7067 7.72532 90.6321C7.94665 90.5574 8.18402 90.5747 8.38802 90.676C9.97602 91.4627 11.4254 92.4987 12.696 93.756C13.988 95.0614 15.0307 96.52 15.8053 98.0974C16.0147 98.528 15.8373 99.0467 15.408 99.2574L1.58398 106.044C1.46398 106.104 1.33333 106.132 1.20267 106.132" fill="#100F0D"/>
</svg>
