<svg width="90" height="95" viewBox="0 0 90 95" fill="none" xmlns="http://www.w3.org/2000/svg">
<path d="M49.9844 6.07201C49.9844 6.07201 50.9948 6.21201 52.8891 6.47601C53.8443 6.56401 54.9891 6.84934 56.3401 7.17468C57.0099 7.35334 57.7557 7.464 58.5057 7.73334C59.2599 7.988 60.062 8.25735 60.9088 8.54401C64.2473 9.79468 68.238 11.6387 72.2448 14.644C76.2339 17.6373 80.2751 21.728 83.4568 27.024C86.6349 32.2893 89.0355 38.716 89.6995 45.7893C89.7489 46.6747 89.7984 47.5667 89.8484 48.4627C89.8651 48.9227 89.9161 49.3373 89.9047 49.8387L89.8479 51.1827C89.8099 52.0814 89.7719 52.9853 89.7333 53.8947C89.6516 54.808 89.4839 55.7347 89.3609 56.6627C89.1719 58.544 88.6276 60.3493 88.1828 62.204C88.0839 62.672 87.9339 63.1254 87.7636 63.5734L87.2797 64.9293L86.7932 66.292L86.5448 66.9734L86.2344 67.632C85.8197 68.5107 85.4036 69.3934 84.986 70.2787C84.7927 70.7307 84.5412 71.152 84.2844 71.572L83.5276 72.84C82.5855 74.5827 81.3183 76.1267 80.1489 77.752C79.5219 78.532 78.824 79.2574 78.1604 80.016L77.1505 81.144L76.0375 82.176C75.286 82.856 74.5615 83.5733 73.7803 84.2267C72.9688 84.8427 72.1557 85.4614 71.3412 86.0814C67.9891 88.412 64.3656 90.5 60.4183 91.82L58.9579 92.3667L57.4511 92.772C56.4432 93.0307 55.4417 93.328 54.4245 93.5533C52.3631 93.8547 50.3131 94.3227 48.2183 94.352L46.6536 94.4427L45.8708 94.488L45.6751 94.4987C45.6921 94.5013 45.5421 94.5027 45.5224 94.5L45.4271 94.496L45.0453 94.48L41.9896 94.3507C40.9849 94.3573 39.9156 94.1293 38.8745 94L37.3036 93.772L36.5197 93.6547L35.7604 93.4667L32.7245 92.712C31.7145 92.4574 30.7552 92.04 29.7697 91.712L28.3021 91.1867C27.8156 91.0053 27.3584 90.756 26.886 90.544C25.9489 90.0987 25.014 89.6547 24.0807 89.212C22.3245 88.1267 20.4787 87.1853 18.8765 85.8973L17.6396 84.9867C17.2251 84.6867 16.8109 84.3867 16.4427 84.0333C15.6817 83.352 14.9235 82.6733 14.1672 81.9973C11.3026 79.1387 8.65103 76.0707 6.69166 72.628L5.91406 71.3693C5.66458 70.9453 5.4703 70.492 5.24687 70.056C4.81458 69.176 4.38384 68.2987 3.95572 67.4267C3.58124 66.5307 3.26354 65.616 2.91874 64.716L2.41354 63.3667C2.2401 62.9187 2.15259 62.4467 2.01874 61.9893C1.77447 61.068 1.53124 60.1507 1.28906 59.2387C1.04635 58.3267 0.962498 57.388 0.794258 56.472L0.573431 55.0947C0.497391 54.636 0.418738 54.1813 0.409365 53.7187C0.355205 52.8 0.301551 51.8867 0.248431 50.9787C0.223431 50.5 0.198431 50.024 0.173431 49.5494C0.189058 49.1147 0.204165 48.6814 0.219778 48.248C0.249991 47.3854 0.280725 46.5267 0.310925 45.676C0.419778 44.7814 0.527591 43.8934 0.634885 43.0134C0.690098 42.5734 0.744778 42.1333 0.799991 41.6973C0.888538 41.2733 0.977071 40.852 1.0651 40.432C1.24478 39.5933 1.42291 38.7613 1.59895 37.9373C1.82551 37.1253 2.0828 36.3293 2.32135 35.536C2.74791 33.9307 3.44999 32.4573 4.02083 30.9693C6.57916 25.1173 10.1974 20.38 13.8885 16.7494C17.6005 13.1094 21.4292 10.5973 24.7183 8.83067C28.064 7.16267 30.8349 6.14399 32.7593 5.58399C34.6953 5.05599 35.7276 4.77468 35.7276 4.77468L36.6479 8.96934C36.6479 8.96934 35.7084 9.21067 33.9469 9.66133C32.1927 10.1387 29.6672 11.0267 26.5948 12.488C23.5771 14.0493 20.0473 16.2813 16.5953 19.5547C13.1645 22.8213 9.76822 27.1093 7.32655 32.4547C6.78489 33.816 6.10521 35.16 5.69426 36.6347C5.46354 37.3613 5.21197 38.0907 4.98958 38.836C4.8151 39.5947 4.63854 40.3587 4.46093 41.1307C4.37239 41.516 4.28384 41.904 4.19426 42.2933C4.14062 42.68 4.08592 43.0693 4.03176 43.46C3.91926 44.2427 3.80624 45.0307 3.69218 45.824C3.64791 46.6747 3.60311 47.532 3.55832 48.3947C3.53592 48.8267 3.51354 49.26 3.49062 49.6947L3.54583 50.8827C3.58124 51.7254 3.61666 52.5747 3.65207 53.4293C3.65155 53.8587 3.71926 54.2827 3.78384 54.708L3.96926 55.9907C4.11302 56.844 4.1703 57.7213 4.38437 58.5707C4.59583 59.4227 4.80884 60.2787 5.02239 61.14C5.1401 61.5667 5.2104 62.0107 5.36718 62.428L5.81874 63.692C6.12759 64.5333 6.40625 65.3933 6.74114 66.236C7.12811 67.0547 7.51718 67.8787 7.90781 68.7067C8.10937 69.1174 8.28176 69.5454 8.50884 69.9454L9.2177 71.132C10.9922 74.3853 13.4364 77.2947 16.0797 80.0293C16.7803 80.676 17.4823 81.3267 18.1869 81.9774C18.5271 82.3187 18.9125 82.6053 19.2979 82.8933L20.4484 83.768C21.9349 85.0107 23.6625 85.916 25.3 86.9747C26.174 87.4067 27.0495 87.8387 27.9271 88.272C28.3697 88.48 28.7969 88.7267 29.2541 88.9027L30.6323 89.42C31.5588 89.744 32.4593 90.1587 33.4109 90.4134L36.2729 91.1747L36.9901 91.3667L37.7125 91.4853L39.1588 91.7187C40.1339 91.8547 41.0625 92.092 42.1031 92.1054L45.1563 92.2853L45.538 92.3067L45.6333 92.3134C45.6776 92.316 45.5912 92.3094 45.6719 92.3107L45.8584 92.3027L46.6031 92.2707L48.0948 92.2067C50.0932 92.2174 52.0489 91.7947 54.0235 91.5467C54.9969 91.3467 55.9563 91.076 56.9235 90.8467L58.3703 90.4853L59.7735 89.9827C63.5708 88.7867 67.0724 86.84 70.3323 84.6547C71.1255 84.072 71.9177 83.4907 72.7073 82.9107C73.4693 82.2947 74.1755 81.6147 74.9115 80.9734L76.0016 79.9973L76.9917 78.924C77.6421 78.204 78.3292 77.5147 78.9469 76.7734C80.0973 75.2214 81.3521 73.752 82.288 72.0814L83.0412 70.864C83.2969 70.4627 83.5479 70.0587 83.7407 69.624C84.1593 68.7733 84.5765 67.9254 84.9921 67.0814L85.3041 66.448L85.5552 65.7907L86.0479 64.4774L86.5396 63.1693C86.7136 62.736 86.8667 62.2987 86.9693 61.8467C87.4281 60.0547 87.9917 58.2947 88.1984 56.5027C88.3312 55.6093 88.5104 54.7333 88.6063 53.8373C88.6593 52.9293 88.7125 52.0253 88.7651 51.128L88.8443 49.7853C88.8604 49.3933 88.8188 48.9173 88.8088 48.4907C88.7751 47.612 88.7407 46.74 88.7073 45.8747C88.1719 38.9507 85.9251 32.6053 82.8812 27.368C79.8344 22.1013 75.9084 17.9907 72.0041 14.9587C68.0833 11.916 64.1484 10.0174 60.8448 8.71602C60.0052 8.41869 59.2109 8.13601 58.4636 7.86934C57.7197 7.58801 56.9812 7.46802 56.3161 7.27868C54.9755 6.93335 53.836 6.62666 52.8817 6.52266C50.9921 6.22933 49.9844 6.07201 49.9844 6.07201" fill="white"/>
<path d="M28.8495 15.7027L34.9229 7.14003L26.3563 1.07203L32.5683 0.013374L41.1307 6.08271L35.0615 14.6454L28.8495 15.7027" fill="white"/>
</svg>
